# xmcd
#
# Track frame offsets: 
#        150
#        24704
#        48252
#        66433
#        83909
#        98744
#        116571
#        130708
#        153025
#
# Disc length: 2279 seconds
#
# Revision: 0
# Processed by: cddbd v1.5.2PL0 Copyright (c) Steve Scherf et al.
# Submitted via: ExactAudioCopy v0.99pb4
#
DISCID=6b08e509
DTITLE=Per Brevita' Chiamato Artista - Francesco De Gregori
DYEAR=2008
DGENRE=Rock
TTITLE0=Per Brevità Chiamato Artista
TTITLE1=Finestre Rotte
TTITLE2=Celebrazione
TTITLE3=Volavola
TTITLE4=Ogni Giorno Di Pioggia Che Dio
TTITLE5=L'Angelo Di Lyon
TTITLE6=Carne Umana Per Colazione
TTITLE7=L'Imperfetto
TTITLE8=L'Infinito
EXTD=
EXTT0=
EXTT1=
EXTT2=
EXTT3=
EXTT4=
EXTT5=
EXTT6=
EXTT7=
EXTT8=
PLAYORDER=
